#!OML:ASF F:\VICON\USERDATA\INSTALL\Justin_Nancy\Justin_Nancy.ASF
:FULLY-SPECIFIED
:DEGREES
1
root 10.6388 17.2784 -26.3766 0.924547 -6.35301 -5.99442
lowerback 6.17421 0.606529 3.5015
upperback -0.333931 1.24245 4.69644
thorax -3.84726 0.591915 2.7872
lowerneck -13.5081 -4.34328 -8.73489
upperneck 21.7542 -5.51695 6.20374
head 9.51164 -2.63315 2.9283
rclavicle 1.3741e-014 4.13472e-014
rhumerus -26.7696 -5.57387 -79.7329
rradius 36.2349
rwrist 5.26691
rhand -13.9172 1.84606
rfingers 7.12502
rthumb 12.2089 -27.7776
lclavicle 1.3741e-014 4.13472e-014
lhumerus -36.2986 7.77016 85.2891
lradius 27.2212
lwrist -8.92788
lhand -11.5984 26.7176
lfingers 7.12502
lthumb 14.444 56.1949
rfemur 8.1008 3.59015 34.655
rtibia 14.9928
rfoot -15.6937 -0.793562
rtoes 8.45196
lfemur -33.8014 0.265665 -12.2876
ltibia 39.5675
lfoot -5.72596 8.45654
ltoes -6.76699
2
root 10.6184 17.2714 -26.1332 1.40074 -6.92477 -5.95588
lowerback 5.88428 0.852146 3.4876
upperback -0.480664 1.55664 4.64648
thorax -3.84266 0.747679 2.71642
lowerneck -13.0757 -4.26397 -8.63477
upperneck 20.8667 -5.44336 6.29253
head 9.11481 -2.58623 2.94872
rclavicle -1.51325e-014 6.36111e-015
rhumerus -26.1795 -5.05418 -79.8184
rradius 36.6894
rwrist 4.8264
rhand -14.229 4.51314
rfingers 7.12502
rthumb 11.9083 -25.1282
lclavicle -1.51325e-014 6.36111e-015
lhumerus -36.7024 8.62416 84.8917
lradius 26.7304
lwrist -9.59881
lhand -11.7541 26.4788
lfingers 7.12502
lthumb 14.2939 55.9668
rfemur 9.11052 3.79706 34.4688
rtibia 13.8896
rfoot -15.4719 -0.0936183
rtoes 7.77816
lfemur -34.1728 -0.164092 -12.0549
ltibia 36.398
lfoot -4.90279 9.11809
ltoes -6.973
3
root 10.6015 17.2528 -25.8895 1.92641 -7.3216 -5.78881
lowerback 5.49591 0.980036 3.37352
upperback -0.660732 1.70187 4.57133
thorax -3.81471 0.821605 2.69377
lowerneck -12.6532 -4.2802 -8.52208
upperneck 20.3306 -5.45903 6.10712
head 8.84535 -2.61 2.86477
rclavicle 2.20154e-014 2.46493e-014
rhumerus -25.524 -4.43795 -79.9256
rradius 36.8836
rwrist 4.30643
rhand -15.118 8.81614
rfingers 7.12502
rthumb 11.051 -20.8729
lclavicle 2.20154e-014 2.46493e-014
lhumerus -37.0519 9.63102 84.4148
lradius 26.06
lwrist -10.0023
lhand -12.4342 26.2456
lfingers 7.12502
lthumb 13.6385 55.7788
rfemur 10.05 3.96701 34.1494
rtibia 12.8569
rfoot -15.401 0.520323
rtoes 7.04043
lfemur -34.7464 -1.10249 -11.7704
ltibia 33.5899
lfoot -4.81574 9.77423
ltoes -5.2679
4
root 10.5842 17.2236 -25.642 2.12909 -7.65641 -5.79852
lowerback 5.40537 1.09578 3.46678
upperback -0.703921 1.85748 4.53069
thorax -3.80782 0.896391 2.58686
lowerneck -12.875 -4.33748 -8.51343
upperneck 20.5677 -5.50905 6.00036
head 8.96872 -2.64034 2.81911
rclavicle -1.61513e-014 -5.32743e-014
rhumerus -24.8393 -4.00649 -80.0417
rradius 37.1937
rwrist 4.19694
rhand -15.8652 9.86642
rfingers 7.12502
rthumb 10.3302 -19.8599
lclavicle -1.61513e-014 -5.32743e-014
lhumerus -37.3744 10.8443 83.8335
lradius 25.4811
lwrist -10.7234
lhand -12.703 26.1589
lfingers 7.12502
lthumb 13.3795 55.7093
rfemur 11.4213 4.1886 34.1231
rtibia 11.6429
rfoot -15.1159 0.832087
rtoes 5.3558
lfemur -34.8943 -2.2884 -11.182
ltibia 30.8445
lfoot -5.17882 10.5115
ltoes -2.53108
5
root 10.5678 17.2115 -25.3834 2.22199 -8.16252 -5.71001
lowerback 5.23526 1.2284 3.50515
upperback -0.641346 2.01912 4.46802
thorax -3.64632 0.976586 2.48958
lowerneck -13.4735 -4.30233 -8.71667
upperneck 21.0453 -5.42518 6.17637
head 9.249 -2.58954 2.92051
rclavicle -9.19379e-015 -3.49861e-014
rhumerus -24.1807 -3.49898 -80.1902
rradius 37.6879
rwrist 4.5031
rhand -16.0858 9.26732
rfingers 7.12502
rthumb 10.1174 -20.4694
lclavicle -9.19379e-015 -3.49861e-014
lhumerus -37.868 12.2283 83.1691
lradius 25.2731
lwrist -11.7545
lhand -12.4783 25.3971
lfingers 7.12502
lthumb 13.5961 54.9331
rfemur 12.7748 4.39367 33.9303
rtibia 10.7242
rfoot -14.8165 1.21293
rtoes 3.79365
lfemur -34.7594 -3.33037 -10.7612
ltibia 28.3298
lfoot -6.80909 11.5577
ltoes -4.08381
6
root 10.5514 17.204 -25.1194 2.44468 -8.77584 -5.59886
lowerback 4.90853 1.43014 3.54979
upperback -0.632239 2.26485 4.36485
thorax -3.45099 1.09857 2.34453
lowerneck -13.5705 -4.29381 -8.62228
upperneck 20.8927 -5.39617 6.07765
head 9.20615 -2.57638 2.87126
rclavicle 9.16894e-015 9.54166e-015
rhumerus -23.6515 -3.27487 -80.224
rradius 38.1744
rwrist 4.47861
rhand -16.0112 9.52276
rfingers 7.12502
rthumb 10.1894 -20.2105
lclavicle 9.16894e-015 9.54166e-015
lhumerus -38.3813 13.4786 82.4879
lradius 24.8989
lwrist -12.385
lhand -12.2997 25.2139
lfingers 7.12502
lthumb 13.7682 54.7384
rfemur 13.9424 4.83241 33.6867
rtibia 9.92641
rfoot -14.5171 1.56372
rtoes 3.19079
lfemur -34.8256 -4.16791 -10.3736
ltibia 26.1671
lfoot -7.63398 13.1553
ltoes -3.41487
7
root 10.5366 17.181 -24.8615 2.60519 -9.16117 -5.32159
lowerback 4.85479 1.57565 3.37891
upperback -0.831416 2.45213 4.21469
thorax -3.63044 1.19175 2.26888
lowerneck -13.0116 -4.30886 -8.37287
upperneck 20.3367 -5.44389 5.84903
head 8.901 -2.61119 2.74774
rclavicle -6.03808e-015 3.18055e-014
rhumerus -23.5734 -3.32798 -80.1666
rradius 38.6857
rwrist 4.52744
rhand -15.7905 10.2103
rfingers 7.12502
rthumb 10.4023 -19.5124
lclavicle -6.03808e-015 3.18055e-014
lhumerus -39.2374 14.4272 81.7639
lradius 24.4739
lwrist -12.434
lhand -12.4668 26.2475
lfingers 7.12502
lthumb 13.6072 55.7828
rfemur 14.9503 5.04081 33.2632
rtibia 9.40641
rfoot -14.1791 1.93336
rtoes 2.68096
lfemur -35.0667 -5.13161 -10.161
ltibia 24.3017
lfoot -9.46377 14.168
ltoes -6.21727
8
root 10.521 17.1544 -24.6039 2.72207 -9.3225 -5.18405
lowerback 4.73157 1.62931 3.39065
upperback -0.933209 2.5179 4.08248
thorax -3.66078 1.22227 2.12216
lowerneck -13.1596 -4.23827 -8.35006
upperneck 20.6224 -5.36952 5.92815
head 9.02165 -2.56493 2.78079
rclavicle 1.963e-014 7.95139e-015
rhumerus -23.4482 -3.37976 -80.1907
rradius 39.1513
rwrist 4.47546
rhand -15.8895 10.3442
rfingers 7.12502
rthumb 10.3068 -19.3832
lclavicle 1.963e-014 7.95139e-015
lhumerus -39.9776 15.5072 80.9086
lradius 24.2027
lwrist -12.9681
lhand -12.1926 27.49
lfingers 7.12502
lthumb 13.8714 57.0074
rfemur 15.8025 5.01311 33.0233
rtibia 9.26105
rfoot -13.9141 2.2312
rtoes 1.09855
lfemur -35.3018 -5.92528 -9.94475
ltibia 22.7533
lfoot -11.1468 15.0728
ltoes -8.84369
9
root 10.5005 17.1321 -24.3482 2.84433 -9.44157 -5.05966
lowerback 4.50086 1.66463 3.409
upperback -0.895299 2.54551 3.97054
thorax -3.48528 1.23623 2.00061
lowerneck -13.6337 -4.1025 -8.61405
upperneck 21.0786 -5.18728 6.30579
head 9.26998 -2.45405 2.97744
rclavicle 4.12727e-014 1.27222e-014
rhumerus -22.9707 -3.56561 -80.2143
rradius 39.4467
rwrist 4.38446
rhand -16.2503 10.1546
rfingers 7.12502
rthumb 9.95864 -19.5898
lclavicle 4.12727e-014 1.27222e-014
lhumerus -40.3781 16.4755 80.2587
lradius 23.8558
lwrist -13.2051
lhand -11.9833 29.4383
lfingers 7.12502
lthumb 14.0731 58.9417
rfemur 16.302 4.94094 32.813
rtibia 9.79303
rfoot -13.6588 2.67437
rtoes 1.69294
lfemur -35.3939 -6.79281 -9.71504
ltibia 21.444
lfoot -12.2881 16.0025
ltoes -10.7126
